<svg xmlns="http://www.w3.org/2000/svg" viewBox="0 0 403 642.3">
  <path fill="#fff" d="M310.7 52s-30.9-38-124.5-32c0 0-103.5 4-141.5 44-15.7 16.2 16 14 16 14l-52 109.6v14l16 22.4 64 112-38.8 306h267.9l-25.9-306 64.7-119.8V74l20-20-56-16-9.9 14z"/>
  <path d="M395.6 40.5c-15.5-4.9-30.8-1.5-46.7 1-.9-8.9-1.3-17.2-5.3-25.3-4.3-12-27.3-25.8-30.7-6.3-.9 8.5-1 16.5-5.3 24.5C270.4 8 232.1 4.3 187.8 6c-50.4-.2-103.7 8.4-142.5 43-6.3 5.2-12.1 11-17.8 16.8C17.6 76.2 32.2 84 42.3 83 15.5 119.8-1.7 163.6.7 209.7c1.6 23-9.8 27.3 19.1 32 5.4 8.6 8.8 20.3 12.7 30 5 11.2 14.1 20.1 18.6 31.5 8.5 9.9 19.2 18.7 27.7 28.8-.4 5.6-38.4 308-38.5 310.5h21c-.6-16 36.5-287.6 36.7-295.8 61.7 33.8 122.8 34.4 183.9-.3.3 1.9 26.2 290.5 26.4 296.1h20c1.2-16.4-27.4-305.5-27.1-311.6 9.5-10.9 22.4-18.1 29.1-30.8 19.2-28.4 30.6-60.2 33.1-94.3 21-47.3 9.6-70.8-1.3-117.7 11.6-11.3 25-19.3 37.2-29.6 6.1-5.6 4.1-16.2-3.7-18zm-54.1 52.1c10.2 36.1 22.2 71.2 2 106.4-3.6 44-17.1 82.5-51.2 112.2-80.1 77.7-224.2 34.8-250-73.7C36 222 46.2 197.2 21 203.3c1-42 15-81 41.8-113.2 4.1-4.7 11.5-8.5 9.2-15.8-1.3-7.2-9.2-8.1-15.3-8.6 35-30 80.9-39.6 125.9-39.4 24.1-.1 48.4-.6 72.1 4.8 45.4 9.2 57.7 57.2 72.7 12.5-1.8 10.7 2.9 33.9 17.7 23.7 4.6-4 10-4.9 15.7-6-8.5 8.7-24.2 16.9-19.3 31.3z"/>
  <path d="M135 168.6c-1-2.6-17.5-43.9-18.1-46-3.5-9.5 5.7-14.8 12.7-9.8 16.6 10.8 60.1 42.5 84.4 50.3-2.1-4.2-11.5-23.5-14.3-29-4.4-6.5 2.8-15.2 9.8-11.7 29.9 13.5 67 36.6 100.9 41.9-.9-1.8-11.5-21.4-16.3-30.2-1.8-3.3-2.1-6.7.6-9.8 3.8-4.4 9.8-3.6 12.9 1.8 3.1 5.5 25.6 44.6 26.3 45.9 3.5 5.6-2.4 13.1-8.7 11.4-14.5-2.9-28.9-6-43.2-10.3-19.8-6-57.2-27.1-58.8-28 .6 1.8 10.1 21.3 14.7 30 5.2 7.4-2 16.9-11.1 12.3-22.6-8.3-80-43-86.4-48.3 8.9 26.6 37.2 60.4-17.1 42.5-14.7-5.7-75.2-35.6-70.3-52.8 8-13 19.1 5.9 26.9 10.2 17 12.7 34.5 23.9 55.1 29.6zm51.9 94.1c-19.4-1.3-103.5 2.3-106-10.5-2.8-13.2 15.2-9.3 23-8.7 49.4 6.4 137.1 2.5 179-1.1 5.3-.3 8.8 2.6 9 7.1 6.2 16.7-95.9 12-105 13.2zm92-63.6c18.4-.5 18 28.6 0 28.4-19.1-.4-18.4-28.8 0-28.4zm-187 31.3c-17.7.3-18.5-28.1-.4-28.4 19.2-.7 19.2 28.7.4 28.4z"/>
</svg>
